<svg width="128" height="128" viewBox="0 0 128 128" xmlns="http://www.w3.org/2000/svg">
  <!-- Background -->
  <rect width="128" height="128" rx="22" fill="#E84545"/>

  <!-- Document body -->
  <rect x="26" y="20" width="56" height="70" rx="6" fill="white"/>

  <!-- Folded corner -->
  <path d="M66 20 L82 36 H66 Z" fill="#E84545"/>
  <path d="M66 20 L82 36 H66 Z" fill="white" opacity="0.25"/>
  <rect x="66" y="20" width="16" height="16" rx="0" fill="#E84545" opacity="0.15"/>
  <path d="M66 36 L82 36" stroke="#E84545" stroke-width="1.5" opacity="0.3"/>

  <!-- Text lines on document -->
  <rect x="34" y="46" width="32" height="4" rx="2" fill="#E84545" opacity="0.25"/>
  <rect x="34" y="55" width="26" height="4" rx="2" fill="#E84545" opacity="0.2"/>
  <rect x="34" y="64" width="28" height="4" rx="2" fill="#E84545" opacity="0.2"/>
  <rect x="34" y="73" width="20" height="4" rx="2" fill="#E84545" opacity="0.15"/>

  <!-- Export arrow circle -->
  <circle cx="88" cy="92" r="22" fill="#C83030"/>
  <circle cx="88" cy="92" r="20" fill="#E84545"/>

  <!-- Down arrow -->
  <path d="M88 82 L88 98" stroke="white" stroke-width="3" stroke-linecap="round"/>
  <path d="M80 92 L88 100 L96 92" stroke="white" stroke-width="3" stroke-linecap="round" stroke-linejoin="round" fill="none"/>
</svg>
